<svg id="svg" version="1.1" xmlns="http://www.w3.org/2000/svg" xmlns:xlink="http://www.w3.org/1999/xlink" width="400" height="400" viewBox="0, 0, 400,400"><g id="svgg"><path id="path0" d="M192.662 64.851 C 146.548 66.159,106.987 99.739,97.946 145.249 C 96.809 150.972,95.762 162.709,96.224 164.551 L 96.338 165.005 115.497 165.005 L 134.656 165.005 134.766 162.135 C 136.282 122.428,175.666 94.275,214.206 105.350 C 259.091 118.248,273.866 175.686,240.833 208.859 C 228.801 220.941,219.438 224.374,191.345 227.004 C 174.036 228.624,163.987 231.236,151.838 237.275 C 118.193 253.999,96.201 288.816,96.146 325.447 L 96.143 327.375 196.049 327.375 L 295.955 327.375 295.955 308.655 L 295.955 289.936 221.841 289.888 C 181.078 289.862,147.668 289.781,147.596 289.710 C 146.815 288.928,156.125 279.844,161.430 276.212 C 171.983 268.987,180.924 266.132,196.519 265.005 C 214.870 263.680,221.978 262.340,232.455 258.232 C 264.740 245.573,288.525 216.912,294.519 183.443 C 305.156 124.055,263.330 69.701,203.312 64.916 C 201.104 64.740,197.387 64.717,192.662 64.851 M192.876 142.152 C 174.254 145.422,166.921 168.524,180.245 181.947 C 193.386 195.187,216.015 188.406,219.700 170.124 C 220.239 167.450,220.181 160.734,219.601 158.608 C 216.595 147.597,204.452 140.120,192.876 142.152 " stroke="none" fill="#fcfbfb" fill-rule="evenodd"></path><path id="path1" d="M190.593 0.210 C 83.923 5.187,0.002 93.159,0.002 200.000 C 0.002 310.501,89.499 399.998,200.000 399.998 C 310.500 399.998,399.998 310.500,399.998 200.000 C 399.998 85.841,304.667 -5.112,190.593 0.210 M205.644 65.014 C 262.738 71.553,302.093 120.451,295.586 176.764 C 291.265 214.149,266.489 245.584,230.798 258.963 C 220.840 262.695,213.978 263.893,194.544 265.290 C 181.070 266.259,172.048 269.228,161.846 276.052 C 156.477 279.643,147.704 288.046,147.696 289.605 C 147.696 289.682,181.075 289.767,221.872 289.793 L 296.049 289.840 296.097 308.608 L 296.145 327.375 196.030 327.375 L 95.915 327.375 96.039 324.224 C 97.645 283.356,122.139 248.419,159.454 233.771 C 169.998 229.632,176.949 228.211,194.920 226.521 C 218.802 224.276,228.761 220.535,239.954 209.606 C 276.144 174.268,256.919 112.130,207.244 103.880 C 170.594 97.793,136.276 125.325,134.925 161.900 L 134.807 165.099 115.536 165.099 L 96.264 165.099 96.132 164.603 C 95.911 163.777,96.281 155.707,96.693 152.375 C 102.506 105.361,141.166 68.434,188.241 64.930 C 192.093 64.643,202.861 64.695,205.644 65.014 M201.411 142.122 C 214.854 145.024,222.616 156.902,219.778 170.231 C 215.837 188.742,193.261 195.315,179.975 181.820 C 170.107 171.796,171.414 154.979,182.720 146.480 C 187.995 142.514,195.320 140.807,201.411 142.122 " stroke="none" fill="#ec6c1c" fill-rule="evenodd"></path><path id="path2" d="M191.392 64.852 C 191.573 64.900,191.870 64.900,192.051 64.852 C 192.232 64.805,192.084 64.766,191.722 64.766 C 191.359 64.766,191.211 64.805,191.392 64.852 M196.186 141.810 C 196.520 141.852,197.112 141.853,197.503 141.812 C 197.893 141.771,197.620 141.737,196.896 141.736 C 196.171 141.735,195.852 141.769,196.186 141.810 M96.201 158.702 C 96.202 159.323,96.237 159.554,96.279 159.216 C 96.321 158.878,96.320 158.370,96.277 158.087 C 96.234 157.804,96.200 158.081,96.201 158.702 M134.771 162.653 C 134.772 163.274,134.808 163.505,134.849 163.167 C 134.891 162.829,134.890 162.321,134.848 162.038 C 134.805 161.755,134.770 162.032,134.771 162.653 M258.753 164.064 C 258.753 164.530,258.790 164.720,258.835 164.487 C 258.879 164.254,258.879 163.873,258.835 163.641 C 258.790 163.408,258.753 163.598,258.753 164.064 M258.745 167.074 C 258.745 167.437,258.784 167.585,258.831 167.404 C 258.879 167.222,258.879 166.926,258.831 166.745 C 258.784 166.564,258.745 166.712,258.745 167.074 M295.998 170.461 C 295.998 170.823,296.037 170.971,296.085 170.790 C 296.132 170.609,296.132 170.313,296.085 170.132 C 296.037 169.951,295.998 170.099,295.998 170.461 " stroke="none" fill="#f4b48c" fill-rule="evenodd"></path><path id="path3" d="M194.497 103.049 C 194.730 103.094,195.111 103.094,195.343 103.049 C 195.576 103.004,195.386 102.968,194.920 102.968 C 194.454 102.968,194.264 103.004,194.497 103.049 M198.356 103.051 C 198.642 103.095,199.066 103.093,199.297 103.049 C 199.528 103.004,199.294 102.969,198.777 102.970 C 198.260 102.971,198.070 103.008,198.356 103.051 M151.729 122.342 L 151.176 122.954 151.787 122.401 C 152.124 122.097,152.399 121.822,152.399 121.790 C 152.399 121.644,152.244 121.772,151.729 122.342 M296.206 162.747 C 296.206 163.523,296.239 163.841,296.280 163.452 C 296.321 163.064,296.321 162.429,296.280 162.041 C 296.239 161.653,296.206 161.971,296.206 162.747 M96.002 163.594 C 96.004 164.008,96.043 164.155,96.088 163.921 C 96.133 163.687,96.131 163.348,96.084 163.168 C 96.037 162.988,96.000 163.180,96.002 163.594 M258.756 165.663 C 258.757 166.181,258.794 166.370,258.837 166.084 C 258.880 165.798,258.879 165.375,258.834 165.143 C 258.790 164.912,258.754 165.146,258.756 165.663 M105.880 165.146 C 111.183 165.174,119.861 165.174,125.165 165.146 C 130.468 165.118,126.129 165.095,115.522 165.095 C 104.915 165.095,100.576 165.118,105.880 165.146 M240.634 208.984 L 239.417 210.254 240.687 209.036 C 241.866 207.906,242.043 207.714,241.904 207.714 C 241.875 207.714,241.304 208.286,240.634 208.984 M124.831 256.679 L 123.142 258.420 124.882 256.730 C 125.840 255.801,126.623 255.018,126.623 254.990 C 126.623 254.853,126.401 255.063,124.831 256.679 M96.021 325.870 C 96.021 326.750,96.053 327.110,96.093 326.670 C 96.132 326.230,96.132 325.510,96.093 325.071 C 96.053 324.631,96.021 324.991,96.021 325.870 " stroke="none" fill="#f4a274" fill-rule="evenodd"></path><path id="path4" d="M192.807 64.859 C 193.145 64.901,193.653 64.900,193.936 64.857 C 194.218 64.814,193.942 64.780,193.321 64.781 C 192.700 64.782,192.469 64.817,192.807 64.859 M264.534 91.686 C 264.534 91.719,264.810 91.994,265.146 92.298 L 265.757 92.850 265.205 92.239 C 264.690 91.669,264.534 91.541,264.534 91.686 M126.613 92.709 L 125.964 93.415 126.670 92.766 C 127.327 92.163,127.462 92.004,127.318 92.004 C 127.287 92.004,126.969 92.321,126.613 92.709 M123.979 95.343 L 123.330 96.049 124.036 95.401 C 124.692 94.797,124.828 94.638,124.684 94.638 C 124.653 94.638,124.335 94.955,123.979 95.343 M295.998 159.172 C 295.998 159.534,296.037 159.683,296.085 159.501 C 296.132 159.320,296.132 159.024,296.085 158.843 C 296.037 158.662,295.998 158.810,295.998 159.172 M96.194 160.489 C 96.194 160.955,96.231 161.145,96.276 160.913 C 96.321 160.680,96.321 160.299,96.276 160.066 C 96.231 159.833,96.194 160.024,96.194 160.489 M220.201 163.876 C 220.201 164.962,220.232 165.407,220.270 164.864 C 220.308 164.320,220.308 163.431,220.270 162.888 C 220.232 162.345,220.201 162.789,220.201 163.876 M258.745 162.747 C 258.745 163.109,258.784 163.257,258.831 163.076 C 258.879 162.895,258.879 162.599,258.831 162.418 C 258.784 162.237,258.745 162.385,258.745 162.747 M134.761 164.346 C 134.763 164.760,134.801 164.907,134.846 164.673 C 134.891 164.439,134.889 164.101,134.842 163.921 C 134.795 163.741,134.758 163.932,134.761 164.346 M173.337 165.475 C 173.338 165.992,173.375 166.182,173.418 165.896 C 173.461 165.610,173.460 165.186,173.416 164.955 C 173.371 164.724,173.336 164.958,173.337 165.475 M296.024 168.109 C 296.024 169.144,296.056 169.543,296.094 168.997 C 296.132 168.450,296.131 167.603,296.093 167.115 C 296.054 166.627,296.023 167.074,296.024 168.109 M266.980 235.654 C 266.209 236.430,265.621 237.065,265.673 237.065 C 265.724 237.065,266.397 236.430,267.168 235.654 C 267.939 234.878,268.528 234.243,268.476 234.243 C 268.424 234.243,267.751 234.878,266.980 235.654 M184.901 289.887 C 205.209 289.913,238.441 289.913,258.749 289.887 C 279.057 289.861,262.441 289.839,221.825 289.839 C 181.209 289.839,164.593 289.861,184.901 289.887 M296.045 308.655 C 296.045 319.003,296.068 323.264,296.096 318.123 C 296.124 312.983,296.124 304.517,296.096 299.309 C 296.068 294.101,296.045 298.307,296.045 308.655 " stroke="none" fill="#f4bc9c" fill-rule="evenodd"></path></g></svg>